<svg xmlns="http://www.w3.org/2000/svg" viewBox="0 0 59.06 36.65"><defs><style>.cls-1{fill:#f2f2f2;}.cls-2{fill:#ff730b;}</style></defs><g id="Layer_2" data-name="Layer 2"><g id="Layer_1-2" data-name="Layer 1"><path class="cls-1" d="M43,0h-27A16.1,16.1,0,0,0,0,16.05V20.6a16.09,16.09,0,0,0,16.05,16H43a16.09,16.09,0,0,0,16.05-16V16.05A16.1,16.1,0,0,0,43,0ZM27.4,34.84a.37.37,0,0,1-.37.36H16.92a15.89,15.89,0,0,1-8-2,13.85,13.85,0,0,1-5.47-5.7,17.57,17.57,0,0,1-1.95-8.38V17.52a17.59,17.59,0,0,1,2-8.42A14,14,0,0,1,9,3.38a15.82,15.82,0,0,1,8-2H27a.36.36,0,0,1,.37.37ZM57.49,19.08a17.68,17.68,0,0,1-1.94,8.38,13.91,13.91,0,0,1-5.47,5.7,16,16,0,0,1-8,2H32a.37.37,0,0,1-.37-.36V1.74A.36.36,0,0,1,32,1.37H42a15.82,15.82,0,0,1,8,2,14.11,14.11,0,0,1,5.5,5.72,17.7,17.7,0,0,1,2,8.42Z"/><path class="cls-1" d="M27.4,1.74v33.1a.37.37,0,0,1-.37.36H16.92a15.89,15.89,0,0,1-8-2,13.85,13.85,0,0,1-5.47-5.7,17.57,17.57,0,0,1-1.95-8.38V17.52a17.59,17.59,0,0,1,2-8.42A14,14,0,0,1,9,3.38a15.82,15.82,0,0,1,8-2H27A.36.36,0,0,1,27.4,1.74Z"/><path class="cls-1" d="M57.49,17.52v1.56a17.68,17.68,0,0,1-1.94,8.38,13.91,13.91,0,0,1-5.47,5.7,16,16,0,0,1-8,2H32a.37.37,0,0,1-.37-.36V1.74A.36.36,0,0,1,32,1.37H42a15.82,15.82,0,0,1,8,2,14.11,14.11,0,0,1,5.5,5.72A17.7,17.7,0,0,1,57.49,17.52Z"/><path class="cls-2" d="M27,1.37H17a15.82,15.82,0,0,0-8,2A14,14,0,0,0,3.52,9.1a17.59,17.59,0,0,0-2,8.42v1.56a17.57,17.57,0,0,0,2,8.38A13.85,13.85,0,0,0,9,33.16a15.89,15.89,0,0,0,8,2H27a.37.37,0,0,0,.37-.36V1.74A.36.36,0,0,0,27,1.37ZM20.44,29.24a.37.37,0,0,1-.37.36h-3a7.58,7.58,0,0,1-6.25-2.67q-2.16-2.67-2.2-7.65V17.5q0-5.16,2.13-7.82A7.52,7.52,0,0,1,17,7h3.08a.38.38,0,0,1,.37.37Z"/><path d="M55.52,9.1A14.11,14.11,0,0,0,50,3.38a15.82,15.82,0,0,0-8-2H32a.36.36,0,0,0-.37.37v33.1a.37.37,0,0,0,.37.36H42.11a16,16,0,0,0,8-2,13.91,13.91,0,0,0,5.47-5.7,17.68,17.68,0,0,0,1.94-8.38V17.52A17.7,17.7,0,0,0,55.52,9.1Zm-5.1,10.18c0,3.32-.76,5.87-2.2,7.65A7.57,7.57,0,0,1,42,29.6H39a.36.36,0,0,1-.37-.36V7.39A.36.36,0,0,1,39,7H42a7.53,7.53,0,0,1,6.25,2.66q2.13,2.65,2.13,7.82Z"/></g></g></svg>